<?xml version="1.0" standalone="no"?>
<!DOCTYPE svg PUBLIC "-//W3C//DTD SVG 20010904//EN"
 "http://www.w3.org/TR/2001/REC-SVG-20010904/DTD/svg10.dtd">
<svg version="1.0" xmlns="http://www.w3.org/2000/svg"
 width="200.000000pt" height="200.000000pt" viewBox="0 0 200.000000 200.000000"
 preserveAspectRatio="xMidYMid meet">
<metadata>
Created by potrace 1.11, written by Peter Selinger 2001-2013
</metadata>
<g transform="translate(0.000000,200.000000) scale(0.100000,-0.100000)"
fill="#000000" stroke="none">
<path d="M102 1338 c2 -421 6 -550 16 -560 6 -6 12 -19 12 -28 1 -19 49 -83
84 -111 14 -11 51 -29 82 -40 53 -19 87 -20 787 -20 403 0 749 1 770 1 l37 0
0 518 c0 547 -2 579 -48 651 -39 62 -113 113 -183 127 -19 4 -377 7 -797 8
l-763 1 3 -547z m1463 367 c70 -36 126 -103 147 -177 10 -38 14 -137 13 -426
l0 -377 -605 0 c-466 0 -615 3 -650 13 -76 22 -134 72 -172 149 l-33 68 -1
393 -2 393 622 -3 621 -3 60 -30z"/>
<path d="M161 500 c-13 -10 -4 -166 13 -215 20 -63 72 -120 134 -148 47 -21
50 -21 821 -22 l773 -1 -5 100 c-3 75 -9 111 -25 141 -38 75 -105 125 -187
141 -44 8 -1513 12 -1524 4z m1475 -73 c12 -4 24 -15 26 -25 5 -16 -35 -17
-661 -17 -366 1 -676 5 -688 9 -13 4 -23 15 -23 24 0 16 45 17 663 17 364 -1
672 -4 683 -8z"/>
</g>
</svg>
